<svg width="647" height="79" viewBox="0 0 647 79" fill="none" xmlns="http://www.w3.org/2000/svg">
<path d="M595.683 77.3448V1.05359H646.895V14.12H611.489V32.666H644.26V45.7324H611.489V64.2784H647V77.3448H595.683Z" fill="white"/>
<path d="M546.894 77.3448H520.023V1.05359H547.21C570.182 1.05359 584.196 15.3845 584.196 39.0938C584.196 63.0139 570.182 77.3448 546.894 77.3448ZM535.829 63.7515H546.261C560.803 63.7515 568.39 56.1645 568.39 39.0938C568.39 22.1285 560.803 14.6469 546.367 14.6469H535.829V63.7515Z" fill="white"/>
<path d="M508.644 39.1994C508.644 64.0678 493.154 78.3987 473.027 78.3987C452.69 78.3987 437.305 63.9624 437.305 39.1994C437.305 14.3309 452.69 0 473.027 0C493.154 0 508.644 14.3309 508.644 39.1994ZM492.521 39.1994C492.521 22.8663 484.829 14.0148 473.027 14.0148C461.225 14.0148 453.428 22.8663 453.428 39.1994C453.428 55.5324 461.225 39.1994 473.027 39.1994C484.829 39.1994 492.521 55.5324 492.521 39.1994Z" fill="white"/>
<path d="M411.698 27.6082C410.434 19.1782 403.901 14.0148 395.049 14.0148C383.142 14.0148 375.344 23.1824 375.344 39.1994C375.344 55.6378 383.247 64.3839 394.944 64.3839C403.69 64.3839 410.118 59.5367 411.698 51.3174L427.715 51.4228C425.924 65.543 414.122 78.3987 394.733 78.3987C374.29 78.3987 359.222 64.0678 359.222 39.1994C359.222 14.3309 374.607 0 394.733 0C412.331 0 425.608 10.116 427.715 27.6082H411.698Z" fill="white"/>
<path d="M297.157 77.3448V1.05359H348.369V14.12H312.963V32.666H345.734V45.7324H312.963V64.2784H348.474V77.3448H297.157Z" fill="white"/>
<path d="M225.607 77.3448V1.05359H241.413V34.8789H242.467L270.18 1.05359H289.253L260.802 35.195L289.569 77.3448H270.602L249.421 45.8378L241.413 55.5323V77.3448H225.607Z" fill="white"/>
<path d="M160.907 77.3448H143.837L170.286 1.05359H190.623L216.967 77.3448H200.001L194.311 59.7473H166.703L160.907 77.3448ZM170.707 47.4184H190.307L180.718 18.2297H180.191L170.707 47.4184Z" fill="white"/>
<path d="M70.4956 77.3448V1.05359H86.3018V32.666H119.389V1.05359H135.301V77.3448H119.389V45.7324H86.3018V77.3448H70.4956Z" fill="white"/>
<path d="M43.9412 22.8663C43.309 16.8599 38.4617 13.2772 30.7694 13.2772C22.7609 13.2772 18.3352 16.9653 18.2298 22.0233C18.1244 27.5028 23.92 30.0318 30.4533 31.507L37.3026 33.193C50.3691 36.1435 60.1689 42.7821 60.1689 55.5324C60.1689 69.5472 49.2099 78.3987 30.664 78.3987C12.2235 78.3987 0.421498 69.8634 0 53.5303H15.3847C15.9116 61.2227 22.0233 65.1215 30.4533 65.1215C38.7779 65.1215 44.152 61.2227 44.152 55.5324C44.152 50.3691 39.4101 47.9455 31.0855 45.838L22.7609 43.8358C9.90521 40.6746 2.00212 34.2467 2.00212 23.077C2.00212 9.16759 14.2256 0 30.8748 0C47.7347 0 58.9044 9.37834 59.1152 22.8663H43.9412Z" fill="white"/>
</svg>
