<svg width="171" height="24" viewBox="0 0 171 24" fill="none" xmlns="http://www.w3.org/2000/svg">
<path d="M18.7324 4.85938H29.6992V6.70508H25.3047V19H23.1465V6.70508H18.7324V4.85938ZM46.327 4.85938V14.1562C46.327 15.1393 46.0926 16.015 45.6238 16.7832C45.1616 17.5449 44.504 18.1439 43.6512 18.5801C42.7983 19.0163 41.8152 19.2344 40.702 19.2344C39.5822 19.2344 38.5991 19.0163 37.7527 18.5801C36.9064 18.1439 36.2488 17.5449 35.7801 16.7832C35.3178 16.015 35.0867 15.1393 35.0867 14.1562V4.85938H37.2352V13.9902C37.2352 14.6152 37.3751 15.1784 37.6551 15.6797C37.9415 16.1745 38.3452 16.5651 38.866 16.8516C39.3934 17.138 40.0053 17.2812 40.702 17.2812C41.4051 17.2812 42.0203 17.138 42.5477 16.8516C43.075 16.5651 43.4754 16.1745 43.7488 15.6797C44.0288 15.1784 44.1687 14.6152 44.1687 13.9902V4.85938H46.327ZM53.4918 19V17.1152H56.8707C57.9384 17.1152 58.8271 16.9134 59.5367 16.5098C60.2464 16.1061 60.777 15.5202 61.1285 14.752C61.4866 13.9772 61.6656 13.0299 61.6656 11.9102C61.6656 10.8034 61.4898 9.86589 61.1383 9.09766C60.7932 8.32292 60.2724 7.73698 59.5758 7.33984C58.8857 6.94271 58.0263 6.74414 56.9977 6.74414H53.4137V4.85938H57.1246C58.5113 4.85938 59.7027 5.13932 60.6988 5.69922C61.7014 6.25911 62.4664 7.06966 62.9938 8.13086C63.5276 9.19206 63.7945 10.4518 63.7945 11.9102C63.7945 13.3815 63.5244 14.6478 62.984 15.709C62.4501 16.7702 61.6721 17.584 60.65 18.1504C59.6344 18.7168 58.4169 19 56.9977 19H53.4918ZM54.5563 19H52.4078V4.85938H54.5563V19ZM70.0121 4.85938L73.6937 11.2656H73.85L77.5316 4.85938H79.9828L74.8559 13.4531V19H72.6977V13.4531L67.5805 4.85938H70.0121ZM84.9602 4.85938H93.8371V6.70508H87.1086V11.002H93.3684V12.8379H87.1086V17.1543H93.9055V19H84.9602V4.85938ZM111.061 19H109.088L101.92 8.6582H101.793V19H99.6445V4.85938H101.637L108.795 15.2109H108.922V4.85938H111.061V19ZM126.692 9.32227C126.523 8.76237 126.266 8.28385 125.921 7.88672C125.576 7.48307 125.159 7.17383 124.671 6.95898C124.189 6.73763 123.639 6.62695 123.02 6.62695C122.213 6.62695 121.49 6.83203 120.852 7.24219C120.221 7.65234 119.72 8.25781 119.348 9.05859C118.984 9.85286 118.802 10.8099 118.802 11.9297C118.802 13.043 118.984 14 119.348 14.8008C119.72 15.5951 120.227 16.2005 120.872 16.6172C121.523 17.0273 122.268 17.2324 123.108 17.2324C123.876 17.2324 124.544 17.0762 125.11 16.7637C125.683 16.4512 126.126 16.0085 126.438 15.4355C126.751 14.8561 126.907 14.1888 126.907 13.4336L127.464 13.5312H123.421V11.7539H128.997V13.3652C128.997 14.5306 128.743 15.556 128.235 16.4414C127.734 17.3203 127.037 18.0007 126.145 18.4824C125.26 18.9577 124.248 19.1953 123.108 19.1953C121.839 19.1953 120.719 18.8991 119.749 18.3066C118.779 17.7142 118.024 16.8711 117.483 15.7773C116.949 14.6836 116.682 13.401 116.682 11.9297C116.682 10.4518 116.953 9.16602 117.493 8.07227C118.04 6.97852 118.792 6.13867 119.749 5.55273C120.706 4.96029 121.793 4.66406 123.011 4.66406C124.02 4.66406 124.941 4.85938 125.774 5.25C126.614 5.64062 127.304 6.1875 127.845 6.89062C128.391 7.59375 128.743 8.4043 128.899 9.32227H126.692ZM136.826 19H134.677V4.85938H136.826V19ZM154.332 19H152.36L145.192 8.6582H145.065V19H142.916V4.85938H144.909L152.067 15.2109H152.194V4.85938H154.332V19ZM160.413 4.85938H169.29V6.70508H162.562V11.002H168.821V12.8379H162.562V17.1543H169.359V19H160.413V4.85938Z" fill="white"/>
<path d="M1 4.9H0.9V5V6.42314V6.46551L0.930434 6.49498L6.39773 11.7895L0.930763 17.0354L0.9 17.0649V17.1076V18.5742V18.6742H1H13H13.1V18.5742V17.1076V17.0076H13H3.4785L8.64693 11.8607L8.71776 11.7901L8.64725 11.7193L3.47694 6.52314H13H13.1V6.42314V5V4.9H13H1Z" fill="white"/>
<path d="M1 4.9H0.9V5V6.42314V6.46551L0.930434 6.49498L6.39773 11.7895L0.930763 17.0354L0.9 17.0649V17.1076V18.5742V18.6742H1H13H13.1V18.5742V17.1076V17.0076H13H3.4785L8.64693 11.8607L8.71776 11.7901L8.64725 11.7193L3.47694 6.52314H13H13.1V6.42314V5V4.9H13H1Z" stroke="black" stroke-width="0.2"/>
<path d="M1 4.9H0.9V5V6.42314V6.46551L0.930434 6.49498L6.39773 11.7895L0.930763 17.0354L0.9 17.0649V17.1076V18.5742V18.6742H1H13H13.1V18.5742V17.1076V17.0076H13H3.4785L8.64693 11.8607L8.71776 11.7901L8.64725 11.7193L3.47694 6.52314H13H13.1V6.42314V5V4.9H13H1Z" stroke="#505050" stroke-width="0.2"/>
</svg>
